<?xml version="1.0" encoding="UTF-8" standalone="no" ?>
<!DOCTYPE svg PUBLIC "-//W3C//DTD SVG 1.1//EN" "http://www.w3.org/Graphics/SVG/1.1/DTD/svg11.dtd">
<svg xmlns="http://www.w3.org/2000/svg" xmlns:xlink="http://www.w3.org/1999/xlink" version="1.1" width="1080" height="1080" viewBox="0 0 1080 1080" xml:space="preserve">
<desc>Created with Fabric.js 5.2.4</desc>
<defs>
</defs>
<g transform="matrix(1 0 0 1 540 540)" id="76df0381-47b3-430f-8c9e-fd50945a1621"  >
<rect style="stroke: none; stroke-width: 1; stroke-dasharray: none; stroke-linecap: butt; stroke-dashoffset: 0; stroke-linejoin: miter; stroke-miterlimit: 4; fill: rgb(255,255,255); fill-rule: nonzero; opacity: 1; visibility: hidden;" vector-effect="non-scaling-stroke"  x="-540" y="-540" rx="0" ry="0" width="1080" height="1080" />
</g>
<g transform="matrix(1 0 0 1 540 540)" id="4f48b16d-23db-4860-ae5d-a0b886fc68eb"  >
</g>
<g transform="matrix(NaN NaN NaN NaN 0 0)"  >
<g style=""   >
</g>
</g>
<g transform="matrix(NaN NaN NaN NaN 0 0)"  >
<g style=""   >
</g>
</g>
<g transform="matrix(8.79 0 0 8.79 540 540)" id="Layer_1"  >
<path style="stroke: none; stroke-width: 1; stroke-dasharray: none; stroke-linecap: butt; stroke-dashoffset: 0; stroke-linejoin: miter; stroke-miterlimit: 4; fill: rgb(0,0,0); fill-rule: nonzero; opacity: 1;"  transform=" translate(-61.44, -39.56)" d="M 86.35 29.93 C 85.6 30.3 84.83999999999999 30.71 84.08999999999999 31.14 C 81.83999999999999 32.46 79.61999999999999 34.07 77.35 35.92 L 72.50999999999999 30.380000000000003 C 74.17999999999999 28.830000000000002 75.99 27.42 77.91 26.17 C 79.44 25.17 81.03999999999999 24.28 82.69 23.520000000000003 C 83.35 23.190000000000005 84.00999999999999 22.880000000000003 84.69 22.590000000000003 C 81.5 16.940000000000005 76.91 12.890000000000004 71.71 10.390000000000004 C 66.50999999999999 7.900000000000004 60.69 6.940000000000004 55.019999999999996 7.490000000000004 C 49.38999999999999 8.030000000000005 43.919999999999995 10.080000000000004 39.4 13.590000000000003 C 34.17 17.640000000000004 30.2 23.700000000000003 28.669999999999998 31.730000000000004 L 28.189999999999998 34.24 L 25.689999999999998 34.68 C 23.24 35.11 21.049999999999997 35.7 19.13 36.45 C 17.27 37.17 15.61 38.06 14.16 39.11 C 13 39.95 12 40.89 11.15 41.91 C 8.52 45.059999999999995 7.300000000000001 49.01 7.33 53.01 C 7.36 57.07 8.68 61.17 11.120000000000001 64.53999999999999 C 12.030000000000001 65.78999999999999 13.080000000000002 66.94 14.280000000000001 67.94 C 15.500000000000002 68.95 16.87 69.78999999999999 18.41 70.42 C 19.94 71.05 21.63 71.5 23.5 71.76 L 96.05 71.76 C 99.58 70.91000000000001 102.7 69.76 105.35 68.28 C 107.97999999999999 66.81 110.13 65.02 111.74 62.870000000000005 C 114.24 59.540000000000006 115.47 54.830000000000005 115.52 50.00000000000001 C 115.58 44.93000000000001 114.33999999999999 39.84 111.92999999999999 36.14000000000001 C 111.24 35.07000000000001 110.47999999999999 34.11000000000001 109.67999999999999 33.25000000000001 C 106.07 29.360000000000007 101.49 27.660000000000007 96.72999999999999 27.630000000000006 C 93.3 27.6 89.73 28.43 86.35 29.93 L 86.35 29.93 L 86.35 29.93 z M 91.99 20.65 C 93.58999999999999 20.4 95.19 20.27 96.78 20.29 C 103.5 20.34 109.98 22.74 115.08 28.24 C 116.14999999999999 29.389999999999997 117.16 30.689999999999998 118.11 32.14 C 121.31 37.06 122.95 43.63 122.88 50.06 C 122.81 56.370000000000005 121.11 62.650000000000006 117.63 67.27000000000001 C 115.36 70.28000000000002 112.44999999999999 72.74000000000001 108.96 74.69000000000001 C 105.6 76.57000000000001 101.67999999999999 78.00000000000001 97.28 79.02000000000001 L 96.46000000000001 79.12 L 23.38000000000001 79.12 L 22.92000000000001 79.08 C 20.250000000000007 78.74 17.83000000000001 78.11 15.63000000000001 77.2 C 13.36000000000001 76.26 11.350000000000009 75.05 9.580000000000009 73.57000000000001 C 7.900000000000009 72.17 6.430000000000009 70.58000000000001 5.180000000000009 68.85000000000001 C 1.84 64.25 0.04 58.63 0 53.03 C -0.04 47.370000000000005 1.72 41.74 5.52 37.18 C 6.75 35.7 8.2 34.34 9.86 33.14 C 11.79 31.740000000000002 14 30.560000000000002 16.5 29.59 C 18.22 28.919999999999998 20.06 28.36 22 27.91 C 24.2 19.17 28.89 12.44 34.92 7.77 C 40.56 3.3999999999999995 47.35 0.8499999999999996 54.34 0.17999999999999972 C 61.300000000000004 -0.4900000000000003 68.46000000000001 0.6899999999999997 74.89 3.78 C 81.9 7.15 88.02 12.76 91.99 20.65 L 91.99 20.65 L 91.99 20.65 z" stroke-linecap="round" />
</g>
<g transform="matrix(8.22 0 0 8.22 540 570.94)" id="cf9c4801-d4cd-4cb4-8a18-0e3b383a68c3"  >
<path style="stroke: rgb(0,0,0); stroke-width: 0; stroke-dasharray: none; stroke-linecap: butt; stroke-dashoffset: 0; stroke-linejoin: miter; stroke-miterlimit: 4; fill: rgb(173,235,179); fill-rule: nonzero; opacity: 1;" vector-effect="non-scaling-stroke"  transform=" translate(-50, -50)" d="M 42.653 45.007 L 30.876 45.007 C 29.645 45.007 28.466 45.263 27.443 45.672 C 26.318 46.134 25.344 46.799 24.525000000000002 47.669 L 24.472 47.669 C 23.654 48.489 22.987000000000002 49.461 22.528000000000002 50.587999999999994 C 22.119000000000003 51.611 21.861 52.791 21.861 54.019999999999996 C 21.861 55.248 22.119 56.373999999999995 22.528000000000002 57.449 C 22.986 58.525 23.653000000000002 59.550999999999995 24.525000000000002 60.369 C 25.344 61.187 26.317000000000004 61.854 27.443 62.314 C 28.466 62.775 29.645000000000003 63.031 30.876 63.031 L 69.124 63.031 C 70.35199999999999 63.031 71.53 62.775 72.553 62.314 C 73.682 61.854 74.65299999999999 61.187 75.524 60.369 C 76.342 59.551 77.009 58.525 77.472 57.449 C 77.92999999999999 56.375 78.13499999999999 55.248 78.13499999999999 54.019999999999996 C 78.13499999999999 52.791 77.92999999999999 51.611 77.472 50.587999999999994 C 77.06299999999999 49.614 76.497 48.69299999999999 75.83099999999999 47.92399999999999 L 75.52299999999998 47.66899999999999 C 74.65199999999999 46.79899999999999 73.68099999999998 46.13399999999999 72.55199999999998 45.67199999999999 C 71.52999999999997 45.21199999999999 70.35099999999998 45.00699999999999 69.12299999999998 45.00699999999999 L 62.46599999999998 44.95599999999999 L 61.23699999999998 44.95599999999999 L 61.23699999999998 35.58499999999999 L 69.12299999999998 35.58499999999999 C 71.63199999999998 35.58499999999999 74.03699999999998 36.09699999999999 76.18899999999998 37.01999999999999 C 78.43999999999998 37.93999999999999 80.44099999999997 39.32399999999999 82.12699999999998 41.01399999999999 L 83.25599999999999 42.13899999999999 L 83.20299999999999 42.13899999999999 C 84.43399999999998 43.62399999999999 85.40499999999999 45.21199999999999 86.17399999999999 47.00399999999999 C 87.04599999999999 49.15399999999999 87.55699999999999 51.50899999999999 87.55699999999999 54.020999999999994 C 87.55699999999999 56.477999999999994 87.04599999999999 58.88399999999999 86.17399999999999 61.035 C 85.25299999999999 63.288999999999994 83.86999999999999 65.33699999999999 82.181 67.02499999999999 L 82.127 67.02499999999999 C 80.441 68.71499999999999 78.44 70.09799999999998 76.189 71.02099999999999 C 74.03699999999999 71.942 71.684 72.40199999999999 69.225 72.40199999999999 L 30.876 72.40199999999999 C 28.364 72.40199999999999 26.011000000000003 71.942 23.859 71.02099999999999 C 21.608 70.09799999999998 19.558 68.71499999999999 17.868000000000002 67.02499999999999 C 16.178 65.33699999999999 14.795000000000002 63.288999999999994 13.825000000000003 61.03499999999999 C 12.953000000000003 58.88499999999999 12.442000000000004 56.47799999999999 12.442000000000004 54.02099999999999 C 12.442000000000004 51.508999999999986 12.954000000000004 49.15499999999999 13.825000000000003 47.003999999999984 C 14.795000000000003 44.75099999999998 16.178000000000004 42.70299999999998 17.868000000000002 41.012999999999984 C 19.558 39.322999999999986 21.608000000000004 37.93999999999998 23.859 36.96799999999998 C 26.011000000000003 36.09599999999998 28.364 35.58499999999998 30.876 35.58499999999998 L 43.521 35.58499999999998 C 42.346000000000004 33.28099999999998 40.399 31.18199999999998 40.399 28.466999999999977 C 40.399 27.13699999999998 43.521 27.494999999999976 44.7 28.466999999999977 C 49.001000000000005 31.846999999999976 53.354 35.226999999999975 57.655 38.60699999999998 C 58.833 39.52799999999998 58.833 41.064999999999976 57.655 41.98499999999998 C 53.354 45.36499999999998 49.001000000000005 48.744999999999976 44.7 52.125999999999976 C 43.521 53.046999999999976 40.399 53.455999999999975 40.399 52.125999999999976 C 40.398 50.025 41.577 47.464 42.653 45.007 z" stroke-linecap="round" />
</g>
<g transform="matrix(NaN NaN NaN NaN 0 0)"  >
<g style=""   >
</g>
</g>
<g transform="matrix(NaN NaN NaN NaN 0 0)"  >
<g style=""   >
</g>
</g>
</svg>